# xmcd
#
# Track frame offsets: 
#        150
#        11718
#        22481
#        36002
#        53915
#        70348
#        85793
#        96349
#        110165
#        125383
#        141081
#
# Disc length: 2110 seconds
#
# Revision: 0
# Processed by: cddbd v1.4PL0 Copyright (c) Steve Scherf et al.
# Submitted via: ExactAudioCopy v0.95a3
#
DISCID=9d083c0b
DTITLE=Kaiminji - Dziivei pa vidu
DYEAR=2001
DGENRE=Country
TTITLE0=Kaa lai
TTITLE1=Scotch whisky
TTITLE2=Paliec
TTITLE3=Es vienkaarshi esmu taads
TTITLE4=Promejot
TTITLE5=Piedodiet
TTITLE6=Lielie greizie rati
TTITLE7=Cik maz mums vajadziigs
TTITLE8=Dziivei pa vidu
TTITLE9=Neaizej
TTITLE10=Tas bija toreiz
EXTD=
EXTT0=
EXTT1=
EXTT2=
EXTT3=
EXTT4=
EXTT5=
EXTT6=
EXTT7=
EXTT8=
EXTT9=
EXTT10=
PLAYORDER=
